<?xml version="1.0" encoding="utf-8"?>
<!-- Generator: Adobe Illustrator 17.0.0, SVG Export Plug-In . SVG Version: 6.00 Build 0)  -->
<!DOCTYPE svg PUBLIC "-//W3C//DTD SVG 1.1//EN" "http://www.w3.org/Graphics/SVG/1.1/DTD/svg11.dtd">
<svg version="1.1" id="图层_1" xmlns="http://www.w3.org/2000/svg" xmlns:xlink="http://www.w3.org/1999/xlink" x="0px" y="0px"
	 width="1024px" height="1024px" viewBox="0 0 1024 1024" style="enable-background:new 0 0 1024 1024;" xml:space="preserve">
<g>
	<path style="fill:#ffffffff;" d="M512,537.221L714.765,740.27c11.943,11.97,31.327,11.97,43.27,0
		c11.953-11.97,11.953-31.361,0-43.331l-224.4-224.714c-11.953-11.97-31.317-11.97-43.27,0l-224.4,224.714
		c-5.977,5.985-8.965,13.825-8.965,21.665c0,7.84,2.988,15.681,8.965,21.665c11.953,11.97,31.317,11.97,43.27,0L512,537.221z"/>
	<path style="fill:#ffffffff;" d="M512,348.726l202.765,203.049c11.943,11.97,31.327,11.97,43.27,0
		c11.953-11.97,11.953-31.361,0-43.331l-224.4-224.714c-11.953-11.97-31.317-11.97-43.27,0l-224.4,224.714
		c-5.977,5.985-8.965,13.825-8.965,21.665c0,7.84,2.988,15.681,8.965,21.665c11.953,11.97,31.317,11.97,43.27,0L512,348.726z"/>
</g>
</svg>
